0
SECTION
2
HEADER
9
$INSUNITS
70
4
9
$ACADVER
1
AC1014
9
$HANDSEED
5
FFFF
0
ENDSEC
0
SECTION
2
TABLES
0
TABLE
2
VPORT
5
8
100
AcDbSymbolTable
0
ENDTAB
0
TABLE
2
LTYPE
5
5
100
AcDbSymbolTable
0
LTYPE
5
14
100
AcDbSymbolTableRecord
100
AcDbLinetypeTableRecord
2
BYBLOCK
70
0
0
LTYPE
5
15
100
AcDbSymbolTableRecord
100
AcDbLinetypeTableRecord
2
BYLAYER
70
0
0
LTYPE
5
16
100
AcDbSymbolTableRecord
100
AcDbLinetypeTableRecord
2
DASHED
70
0
3
Dashed __ __ __ __ __ __ __ __ __ __ __ __ __ _
72
65
73
2
40
0.75
49
0.5
74
0
49
-0.25
74
0
0
ENDTAB
0
TABLE
2
LAYER
5
2
100
AcDbSymbolTable
70
2
0
LAYER
5
50
100
AcDbSymbolTableRecord
100
AcDbLayerTableRecord
2
0
70
0
62
7
6
CONTINUOUS
0
ENDTAB
0
TABLE
2
STYLE
5
3
100
AcDbSymbolTable
70
1
0
STYLE
5
11
100
AcDbSymbolTableRecord
100
AcDbTextStyleTableRecord
2
STANDARD
70
0
0
ENDTAB
0
TABLE
2
VIEW
5
6
100
AcDbSymbolTable
70
0
0
ENDTAB
0
TABLE
2
UCS
5
7
100
AcDbSymbolTable
70
0
0
ENDTAB
0
TABLE
2
APPID
5
9
100
AcDbSymbolTable
70
2
0
APPID
5
12
100
AcDbSymbolTableRecord
100
AcDbRegAppTableRecord
2
ACAD
70
0
0
ENDTAB
0
TABLE
2
DIMSTYLE
5
A
100
AcDbSymbolTable
70
1
0
ENDTAB
0
TABLE
2
BLOCK_RECORD
5
1
100
AcDbSymbolTable
70
1
0
BLOCK_RECORD
5
1F
100
AcDbSymbolTableRecord
100
AcDbBlockTableRecord
2
*MODEL_SPACE
0
BLOCK_RECORD
5
1B
100
AcDbSymbolTableRecord
100
AcDbBlockTableRecord
2
*PAPER_SPACE
0
ENDTAB
0
ENDSEC
0
SECTION
2
BLOCKS
0
BLOCK
5
20
100
AcDbEntity
100
AcDbBlockBegin
2
*MODEL_SPACE
0
ENDBLK
5
21
100
AcDbEntity
100
AcDbBlockEnd
0
BLOCK
5
1C
100
AcDbEntity
100
AcDbBlockBegin
2
*PAPER_SPACE
0
ENDBLK
5
1D
100
AcDbEntity
100
AcDbBlockEnd
0
ENDSEC
0
SECTION
2
ENTITIES
0
LWPOLYLINE
5
100
100
AcDbEntity
8
0
100
AcDbPolyline
90
8
70
1
43
0.0
10
-5.3120041198677175
20
-11.875148762939373
42
0.41422666669730956
10
-3.8120041198730452
20
-13.375148762944063
10
43.987995880126945
20
-13.375148762939377
42
0.41418133336451041
10
45.487995880127492
20
-11.875148762939373
10
45.487995880126952
20
11.794851237060568
42
0.41420000001531848
10
43.987995880126945
20
13.294851236980527
10
-3.8120041198730448
20
13.294851237060572
42
0.41424533334634556
10
-5.3120041198670194
20
11.794851237060568
0
CIRCLE
5
101
100
AcDbEntity
8
0
100
AcDbCircle
10
42.292995880126938
20
11.364851237060575
30
-1.1102230246251565e-15
40
0.50000000000000011
210
0
220
-0
230
1
0
CIRCLE
5
102
100
AcDbEntity
8
0
100
AcDbCircle
10
39.75299588012696
20
11.364851237060575
30
-1.1102230246251565e-15
40
0.50000000000000011
210
0
220
-0
230
1
0
CIRCLE
5
103
100
AcDbEntity
8
0
100
AcDbCircle
10
37.212995880126947
20
11.364851237060575
30
-1.1102230246251565e-15
40
0.50000000000000011
210
0
220
-0
230
1
0
CIRCLE
5
104
100
AcDbEntity
8
0
100
AcDbCircle
10
34.672995880126948
20
11.364851237060575
30
-1.1102230246251565e-15
40
0.50000000000000011
210
0
220
-0
230
1
0
CIRCLE
5
105
100
AcDbEntity
8
0
100
AcDbCircle
10
32.132995880126941
20
11.364851237060575
30
-1.1102230246251565e-15
40
0.50000000000000011
210
0
220
-0
230
1
0
CIRCLE
5
106
100
AcDbEntity
8
0
100
AcDbCircle
10
42.312995880126948
20
7.6248512370605876
30
-1.1102230246251565e-15
40
0.45000000000000012
210
0
220
-0
230
1
0
CIRCLE
5
107
100
AcDbEntity
8
0
100
AcDbCircle
10
39.772995880126949
20
7.6248512370605876
30
-1.1102230246251565e-15
40
0.45000000000000012
210
0
220
-0
230
1
0
CIRCLE
5
108
100
AcDbEntity
8
0
100
AcDbCircle
10
37.232995880126936
20
7.6248512370605876
30
-1.1102230246251565e-15
40
0.45000000000000012
210
0
220
-0
230
1
0
CIRCLE
5
109
100
AcDbEntity
8
0
100
AcDbCircle
10
34.692995880126944
20
7.6248512370605876
30
-1.1102230246251565e-15
40
0.45000000000000012
210
0
220
-0
230
1
0
CIRCLE
5
110
100
AcDbEntity
8
0
100
AcDbCircle
10
32.152995880126944
20
7.6248512370605876
30
-1.1102230246251565e-15
40
0.45000000000000012
210
0
220
-0
230
1
0
CIRCLE
5
111
100
AcDbEntity
8
0
100
AcDbCircle
10
29.592995880126942
20
11.364851237060575
30
-1.1102230246251565e-15
40
0.50000000000000011
210
0
220
-0
230
1
0
CIRCLE
5
112
100
AcDbEntity
8
0
100
AcDbCircle
10
27.052995880126947
20
11.364851237060575
30
-1.1102230246251565e-15
40
0.50000000000000011
210
0
220
-0
230
1
0
CIRCLE
5
113
100
AcDbEntity
8
0
100
AcDbCircle
10
29.612995880126949
20
7.6248512370605876
30
-1.1102230246251565e-15
40
0.45000000000000012
210
0
220
-0
230
1
0
CIRCLE
5
114
100
AcDbEntity
8
0
100
AcDbCircle
10
27.072995880126935
20
7.6248512370605876
30
-1.1102230246251565e-15
40
0.45000000000000012
210
0
220
-0
230
1
0
CIRCLE
5
115
100
AcDbEntity
8
0
100
AcDbCircle
10
29.638395880126946
20
3.3380512370605868
30
-1.1102230246251565e-15
40
1.1000000000000003
210
0
220
-0
230
1
0
CIRCLE
5
116
100
AcDbEntity
8
0
100
AcDbCircle
10
-2.7720041198730527
20
10.754851237060576
30
-1.1102230246251565e-15
40
1.1000000000000003
210
0
220
-0
230
1
0
CIRCLE
5
117
100
AcDbEntity
8
0
100
AcDbCircle
10
14.292490880126962
20
0.32945023706059123
30
-1.1102230246251565e-15
40
0.50000000000000011
210
0
220
-0
230
1
0
CIRCLE
5
118
100
AcDbEntity
8
0
100
AcDbCircle
10
10.926781880126946
20
1.2220652370605836
30
-1.1102230246251565e-15
40
0.50000000000000011
210
0
220
-0
230
1
0
CIRCLE
5
119
100
AcDbEntity
8
0
100
AcDbCircle
10
42.312995880126948
20
-7.6151487629393895
30
-1.1102230246251565e-15
40
0.45000000000000012
210
0
220
-0
230
1
0
CIRCLE
5
120
100
AcDbEntity
8
0
100
AcDbCircle
10
39.772995880126949
20
-7.6151487629393895
30
-1.1102230246251565e-15
40
0.45000000000000012
210
0
220
-0
230
1
0
CIRCLE
5
121
100
AcDbEntity
8
0
100
AcDbCircle
10
37.232995880126936
20
-7.6151487629393895
30
-1.1102230246251565e-15
40
0.45000000000000012
210
0
220
-0
230
1
0
CIRCLE
5
122
100
AcDbEntity
8
0
100
AcDbCircle
10
34.692995880126944
20
-7.6151487629393895
30
-1.1102230246251565e-15
40
0.45000000000000012
210
0
220
-0
230
1
0
CIRCLE
5
123
100
AcDbEntity
8
0
100
AcDbCircle
10
32.152995880126944
20
-7.6151487629393895
30
-1.1102230246251565e-15
40
0.45000000000000012
210
0
220
-0
230
1
0
CIRCLE
5
124
100
AcDbEntity
8
0
100
AcDbCircle
10
42.312995880126948
20
-11.470148762939393
30
-1.1102230246251565e-15
40
0.50000000000000011
210
0
220
-0
230
1
0
CIRCLE
5
125
100
AcDbEntity
8
0
100
AcDbCircle
10
39.772995880126949
20
-11.470148762939393
30
-1.1102230246251565e-15
40
0.50000000000000011
210
0
220
-0
230
1
0
CIRCLE
5
126
100
AcDbEntity
8
0
100
AcDbCircle
10
37.232995880126936
20
-11.470148762939393
30
-1.1102230246251565e-15
40
0.50000000000000011
210
0
220
-0
230
1
0
CIRCLE
5
127
100
AcDbEntity
8
0
100
AcDbCircle
10
34.692995880126944
20
-11.470148762939393
30
-1.1102230246251565e-15
40
0.50000000000000011
210
0
220
-0
230
1
0
CIRCLE
5
128
100
AcDbEntity
8
0
100
AcDbCircle
10
32.152995880126944
20
-11.470148762939393
30
-1.1102230246251565e-15
40
0.50000000000000011
210
0
220
-0
230
1
0
CIRCLE
5
129
100
AcDbEntity
8
0
100
AcDbCircle
10
29.612995880126949
20
-7.6151487629393895
30
-1.1102230246251565e-15
40
0.45000000000000012
210
0
220
-0
230
1
0
CIRCLE
5
130
100
AcDbEntity
8
0
100
AcDbCircle
10
27.072995880126935
20
-7.6151487629393895
30
-1.1102230246251565e-15
40
0.45000000000000012
210
0
220
-0
230
1
0
CIRCLE
5
131
100
AcDbEntity
8
0
100
AcDbCircle
10
29.612995880126949
20
-11.470148762939393
30
-1.1102230246251565e-15
40
0.50000000000000011
210
0
220
-0
230
1
0
CIRCLE
5
132
100
AcDbEntity
8
0
100
AcDbCircle
10
27.072995880126935
20
-11.470148762939393
30
-1.1102230246251565e-15
40
0.50000000000000011
210
0
220
-0
230
1
0
CIRCLE
5
133
100
AcDbEntity
8
0
100
AcDbCircle
10
11.818506880126947
20
-2.1445337629394072
30
-1.1102230246251565e-15
40
0.50000000000000011
210
0
220
-0
230
1
0
CIRCLE
5
134
100
AcDbEntity
8
0
100
AcDbCircle
10
15.522995880126942
20
-4.9201487629393812
30
-1.1102230246251565e-15
40
0.50000000000000011
210
0
220
-0
230
1
0
CIRCLE
5
135
100
AcDbEntity
8
0
100
AcDbCircle
10
11.022995880126949
20
-4.9201487629393812
30
-1.1102230246251565e-15
40
0.50000000000000011
210
0
220
-0
230
1
0
CIRCLE
5
136
100
AcDbEntity
8
0
100
AcDbCircle
10
-2.7920041198730416
20
-1.0761487629394042
30
-1.1102230246251565e-15
40
0.50000000000000011
210
0
220
-0
230
1
0
CIRCLE
5
137
100
AcDbEntity
8
0
100
AcDbCircle
10
-2.7920041198730416
20
-3.6161487629394
30
-1.1102230246251565e-15
40
0.50000000000000011
210
0
220
-0
230
1
0
CIRCLE
5
138
100
AcDbEntity
8
0
100
AcDbCircle
10
15.522995880126942
20
-11.420148762939368
30
-1.1102230246251565e-15
40
0.50000000000000011
210
0
220
-0
230
1
0
CIRCLE
5
139
100
AcDbEntity
8
0
100
AcDbCircle
10
11.022995880126949
20
-11.420148762939368
30
-1.1102230246251565e-15
40
0.50000000000000011
210
0
220
-0
230
1
0
CIRCLE
5
140
100
AcDbEntity
8
0
100
AcDbCircle
10
-2.7720041198730527
20
-10.835148762939381
30
-1.1102230246251565e-15
40
1.1000000000000003
210
0
220
-0
230
1
0
ENDSEC
0
SECTION
2
OBJECTS
0
DICTIONARY
5
C
100
AcDbDictionary
3
ACAD_GROUP
350
D
3
ACAD_MLINESTYLE
350
17
0
DICTIONARY
5
D
100
AcDbDictionary
0
DICTIONARY
5
1A
330
C
100
AcDbDictionary
0
DICTIONARY
5
17
100
AcDbDictionary
0
ENDSEC
0
EOF
