<?xml version="1.0" encoding="UTF-8"?>
<svg xmlns="http://www.w3.org/2000/svg" width="1.560in" height="0.900in" viewBox="0 0 1560 900">
<g id="breadboard"><circle cx="1120.0" cy="380.0" r="340" fill="#C9C5B8" stroke="#8F8B80" stroke-width="6"/><circle cx="1120.0" cy="380.0" r="300" fill="none" stroke="#B4AFA2" stroke-width="3"/><circle cx="1120.0" cy="380.0" r="252" fill="#97907F" stroke="#7E7869" stroke-width="4"/><circle cx="1120.0" cy="380.0" r="180" fill="none" stroke="#8A8373" stroke-width="3"/><circle cx="1120.0" cy="380.0" r="128" fill="#B8B2A2" stroke="#7E7869" stroke-width="4"/><circle cx="1120.0" cy="380.0" r="2.6" fill="#57524A"/><circle cx="1135.5" cy="380.0" r="2.6" fill="#57524A"/><circle cx="1127.8" cy="393.4" r="2.6" fill="#57524A"/><circle cx="1112.2" cy="393.4" r="2.6" fill="#57524A"/><circle cx="1104.5" cy="380.0" r="2.6" fill="#57524A"/><circle cx="1112.2" cy="366.6" r="2.6" fill="#57524A"/><circle cx="1127.8" cy="366.6" r="2.6" fill="#57524A"/><circle cx="1151.0" cy="380.0" r="2.6" fill="#57524A"/><circle cx="1146.8" cy="395.5" r="2.6" fill="#57524A"/><circle cx="1135.5" cy="406.8" r="2.6" fill="#57524A"/><circle cx="1120.0" cy="411.0" r="2.6" fill="#57524A"/><circle cx="1104.5" cy="406.8" r="2.6" fill="#57524A"/><circle cx="1093.2" cy="395.5" r="2.6" fill="#57524A"/><circle cx="1089.0" cy="380.0" r="2.6" fill="#57524A"/><circle cx="1093.2" cy="364.5" r="2.6" fill="#57524A"/><circle cx="1104.5" cy="353.2" r="2.6" fill="#57524A"/><circle cx="1120.0" cy="349.0" r="2.6" fill="#57524A"/><circle cx="1135.5" cy="353.2" r="2.6" fill="#57524A"/><circle cx="1146.8" cy="364.5" r="2.6" fill="#57524A"/><circle cx="1166.5" cy="380.0" r="2.6" fill="#57524A"/><circle cx="1163.7" cy="395.9" r="2.6" fill="#57524A"/><circle cx="1155.6" cy="409.9" r="2.6" fill="#57524A"/><circle cx="1143.2" cy="420.3" r="2.6" fill="#57524A"/><circle cx="1128.1" cy="425.8" r="2.6" fill="#57524A"/><circle cx="1111.9" cy="425.8" r="2.6" fill="#57524A"/><circle cx="1096.8" cy="420.3" r="2.6" fill="#57524A"/><circle cx="1084.4" cy="409.9" r="2.6" fill="#57524A"/><circle cx="1076.3" cy="395.9" r="2.6" fill="#57524A"/><circle cx="1073.5" cy="380.0" r="2.6" fill="#57524A"/><circle cx="1076.3" cy="364.1" r="2.6" fill="#57524A"/><circle cx="1084.4" cy="350.1" r="2.6" fill="#57524A"/><circle cx="1096.8" cy="339.7" r="2.6" fill="#57524A"/><circle cx="1111.9" cy="334.2" r="2.6" fill="#57524A"/><circle cx="1128.1" cy="334.2" r="2.6" fill="#57524A"/><circle cx="1143.2" cy="339.7" r="2.6" fill="#57524A"/><circle cx="1155.6" cy="350.1" r="2.6" fill="#57524A"/><circle cx="1163.7" cy="364.1" r="2.6" fill="#57524A"/><circle cx="1182.0" cy="380.0" r="2.6" fill="#57524A"/><circle cx="1180.1" cy="395.4" r="2.6" fill="#57524A"/><circle cx="1174.3" cy="409.9" r="2.6" fill="#57524A"/><circle cx="1165.2" cy="422.4" r="2.6" fill="#57524A"/><circle cx="1153.2" cy="432.3" r="2.6" fill="#57524A"/><circle cx="1139.2" cy="439.0" r="2.6" fill="#57524A"/><circle cx="1123.9" cy="441.9" r="2.6" fill="#57524A"/><circle cx="1108.4" cy="440.9" r="2.6" fill="#57524A"/><circle cx="1093.6" cy="436.1" r="2.6" fill="#57524A"/><circle cx="1080.5" cy="427.8" r="2.6" fill="#57524A"/><circle cx="1069.8" cy="416.4" r="2.6" fill="#57524A"/><circle cx="1062.4" cy="402.8" r="2.6" fill="#57524A"/><circle cx="1058.5" cy="387.8" r="2.6" fill="#57524A"/><circle cx="1058.5" cy="372.2" r="2.6" fill="#57524A"/><circle cx="1062.4" cy="357.2" r="2.6" fill="#57524A"/><circle cx="1069.8" cy="343.6" r="2.6" fill="#57524A"/><circle cx="1080.5" cy="332.2" r="2.6" fill="#57524A"/><circle cx="1093.6" cy="323.9" r="2.6" fill="#57524A"/><circle cx="1108.4" cy="319.1" r="2.6" fill="#57524A"/><circle cx="1123.9" cy="318.1" r="2.6" fill="#57524A"/><circle cx="1139.2" cy="321.0" r="2.6" fill="#57524A"/><circle cx="1153.2" cy="327.7" r="2.6" fill="#57524A"/><circle cx="1165.2" cy="337.6" r="2.6" fill="#57524A"/><circle cx="1174.3" cy="350.1" r="2.6" fill="#57524A"/><circle cx="1180.1" cy="364.6" r="2.6" fill="#57524A"/><circle cx="1197.5" cy="380.0" r="2.6" fill="#57524A"/><circle cx="1195.9" cy="395.6" r="2.6" fill="#57524A"/><circle cx="1191.2" cy="410.6" r="2.6" fill="#57524A"/><circle cx="1183.6" cy="424.3" r="2.6" fill="#57524A"/><circle cx="1173.4" cy="436.2" r="2.6" fill="#57524A"/><circle cx="1161.0" cy="445.8" r="2.6" fill="#57524A"/><circle cx="1146.9" cy="452.7" r="2.6" fill="#57524A"/><circle cx="1131.7" cy="456.6" r="2.6" fill="#57524A"/><circle cx="1116.1" cy="457.4" r="2.6" fill="#57524A"/><circle cx="1100.6" cy="455.0" r="2.6" fill="#57524A"/><circle cx="1085.9" cy="449.6" r="2.6" fill="#57524A"/><circle cx="1072.6" cy="441.3" r="2.6" fill="#57524A"/><circle cx="1061.2" cy="430.5" r="2.6" fill="#57524A"/><circle cx="1052.2" cy="417.6" r="2.6" fill="#57524A"/><circle cx="1046.1" cy="403.2" r="2.6" fill="#57524A"/><circle cx="1042.9" cy="387.8" r="2.6" fill="#57524A"/><circle cx="1042.9" cy="372.2" r="2.6" fill="#57524A"/><circle cx="1046.1" cy="356.8" r="2.6" fill="#57524A"/><circle cx="1052.2" cy="342.4" r="2.6" fill="#57524A"/><circle cx="1061.2" cy="329.5" r="2.6" fill="#57524A"/><circle cx="1072.6" cy="318.7" r="2.6" fill="#57524A"/><circle cx="1085.9" cy="310.4" r="2.6" fill="#57524A"/><circle cx="1100.6" cy="305.0" r="2.6" fill="#57524A"/><circle cx="1116.1" cy="302.6" r="2.6" fill="#57524A"/><circle cx="1131.7" cy="303.4" r="2.6" fill="#57524A"/><circle cx="1146.9" cy="307.3" r="2.6" fill="#57524A"/><circle cx="1161.0" cy="314.2" r="2.6" fill="#57524A"/><circle cx="1173.4" cy="323.8" r="2.6" fill="#57524A"/><circle cx="1183.6" cy="335.7" r="2.6" fill="#57524A"/><circle cx="1191.2" cy="349.4" r="2.6" fill="#57524A"/><circle cx="1195.9" cy="364.4" r="2.6" fill="#57524A"/><circle cx="1213.0" cy="380.0" r="2.6" fill="#57524A"/><circle cx="1211.7" cy="395.7" r="2.6" fill="#57524A"/><circle cx="1207.7" cy="411.0" r="2.6" fill="#57524A"/><circle cx="1201.2" cy="425.4" r="2.6" fill="#57524A"/><circle cx="1192.4" cy="438.4" r="2.6" fill="#57524A"/><circle cx="1181.4" cy="449.8" r="2.6" fill="#57524A"/><circle cx="1168.8" cy="459.2" r="2.6" fill="#57524A"/><circle cx="1154.7" cy="466.3" r="2.6" fill="#57524A"/><circle cx="1139.6" cy="470.9" r="2.6" fill="#57524A"/><circle cx="1123.9" cy="472.9" r="2.6" fill="#57524A"/><circle cx="1108.2" cy="472.2" r="2.6" fill="#57524A"/><circle cx="1092.8" cy="468.9" r="2.6" fill="#57524A"/><circle cx="1078.1" cy="463.0" r="2.6" fill="#57524A"/><circle cx="1064.7" cy="454.8" r="2.6" fill="#57524A"/><circle cx="1052.9" cy="444.4" r="2.6" fill="#57524A"/><circle cx="1042.9" cy="432.1" r="2.6" fill="#57524A"/><circle cx="1035.3" cy="418.3" r="2.6" fill="#57524A"/><circle cx="1030.0" cy="403.4" r="2.6" fill="#57524A"/><circle cx="1027.3" cy="387.9" r="2.6" fill="#57524A"/><circle cx="1027.3" cy="372.1" r="2.6" fill="#57524A"/><circle cx="1030.0" cy="356.6" r="2.6" fill="#57524A"/><circle cx="1035.3" cy="341.7" r="2.6" fill="#57524A"/><circle cx="1042.9" cy="327.9" r="2.6" fill="#57524A"/><circle cx="1052.9" cy="315.6" r="2.6" fill="#57524A"/><circle cx="1064.7" cy="305.2" r="2.6" fill="#57524A"/><circle cx="1078.1" cy="297.0" r="2.6" fill="#57524A"/><circle cx="1092.8" cy="291.1" r="2.6" fill="#57524A"/><circle cx="1108.2" cy="287.8" r="2.6" fill="#57524A"/><circle cx="1123.9" cy="287.1" r="2.6" fill="#57524A"/><circle cx="1139.6" cy="289.1" r="2.6" fill="#57524A"/><circle cx="1154.7" cy="293.7" r="2.6" fill="#57524A"/><circle cx="1168.8" cy="300.8" r="2.6" fill="#57524A"/><circle cx="1181.4" cy="310.2" r="2.6" fill="#57524A"/><circle cx="1192.4" cy="321.6" r="2.6" fill="#57524A"/><circle cx="1201.2" cy="334.6" r="2.6" fill="#57524A"/><circle cx="1207.7" cy="349.0" r="2.6" fill="#57524A"/><circle cx="1211.7" cy="364.3" r="2.6" fill="#57524A"/><circle cx="1228.5" cy="380.0" r="2.6" fill="#57524A"/><circle cx="1227.3" cy="395.8" r="2.6" fill="#57524A"/><circle cx="1223.9" cy="411.3" r="2.6" fill="#57524A"/><circle cx="1218.2" cy="426.1" r="2.6" fill="#57524A"/><circle cx="1210.5" cy="439.9" r="2.6" fill="#57524A"/><circle cx="1200.8" cy="452.4" r="2.6" fill="#57524A"/><circle cx="1189.4" cy="463.4" r="2.6" fill="#57524A"/><circle cx="1176.5" cy="472.6" r="2.6" fill="#57524A"/><circle cx="1162.4" cy="479.9" r="2.6" fill="#57524A"/><circle cx="1147.4" cy="485.0" r="2.6" fill="#57524A"/><circle cx="1131.9" cy="487.8" r="2.6" fill="#57524A"/><circle cx="1116.0" cy="488.4" r="2.6" fill="#57524A"/><circle cx="1100.3" cy="486.7" r="2.6" fill="#57524A"/><circle cx="1085.0" cy="482.7" r="2.6" fill="#57524A"/><circle cx="1070.4" cy="476.5" r="2.6" fill="#57524A"/><circle cx="1056.9" cy="468.2" r="2.6" fill="#57524A"/><circle cx="1044.7" cy="458.1" r="2.6" fill="#57524A"/><circle cx="1034.1" cy="446.3" r="2.6" fill="#57524A"/><circle cx="1025.4" cy="433.1" r="2.6" fill="#57524A"/><circle cx="1018.7" cy="418.8" r="2.6" fill="#57524A"/><circle cx="1014.1" cy="403.6" r="2.6" fill="#57524A"/><circle cx="1011.8" cy="387.9" r="2.6" fill="#57524A"/><circle cx="1011.8" cy="372.1" r="2.6" fill="#57524A"/><circle cx="1014.1" cy="356.4" r="2.6" fill="#57524A"/><circle cx="1018.7" cy="341.2" r="2.6" fill="#57524A"/><circle cx="1025.4" cy="326.9" r="2.6" fill="#57524A"/><circle cx="1034.1" cy="313.7" r="2.6" fill="#57524A"/><circle cx="1044.7" cy="301.9" r="2.6" fill="#57524A"/><circle cx="1056.9" cy="291.8" r="2.6" fill="#57524A"/><circle cx="1070.4" cy="283.5" r="2.6" fill="#57524A"/><circle cx="1085.0" cy="277.3" r="2.6" fill="#57524A"/><circle cx="1100.3" cy="273.3" r="2.6" fill="#57524A"/><circle cx="1116.0" cy="271.6" r="2.6" fill="#57524A"/><circle cx="1131.9" cy="272.2" r="2.6" fill="#57524A"/><circle cx="1147.4" cy="275.0" r="2.6" fill="#57524A"/><circle cx="1162.4" cy="280.1" r="2.6" fill="#57524A"/><circle cx="1176.5" cy="287.4" r="2.6" fill="#57524A"/><circle cx="1189.4" cy="296.6" r="2.6" fill="#57524A"/><circle cx="1200.8" cy="307.6" r="2.6" fill="#57524A"/><circle cx="1210.5" cy="320.1" r="2.6" fill="#57524A"/><circle cx="1218.2" cy="333.9" r="2.6" fill="#57524A"/><circle cx="1223.9" cy="348.7" r="2.6" fill="#57524A"/><circle cx="1227.3" cy="364.2" r="2.6" fill="#57524A"/><circle cx="787" cy="349" r="16" fill="#B8933F" stroke="#8F7430" stroke-width="4"/><circle cx="787" cy="419" r="16" fill="#B8933F" stroke="#8F7430" stroke-width="4"/><path d="M 219.4 652 C 219.4 470, 330 356, 520 350 C 660 346, 716 348, 771 349" fill="none" stroke="#C22D22" stroke-width="15" stroke-linecap="round"/><path d="M 140.6 652 C 140.6 500, 320 424, 520 420 C 660 417, 716 418, 771 419" fill="none" stroke="#232323" stroke-width="15" stroke-linecap="round"/><rect x="116.0" y="648" width="128" height="210" rx="12" fill="#F1EDE2" stroke="#B9B29F" stroke-width="5"/><rect x="140.0" y="672" width="80" height="170" rx="8" fill="#DDD8C9"/><rect x="132.6" y="826" width="16" height="26" rx="3" fill="#9a9a9a"/><rect x="211.4" y="826" width="16" height="26" rx="3" fill="#9a9a9a"/><circle id="connector0pin" cx="219.4" cy="850.0" r="11" fill="#8f8f8f" stroke="#6e6e6e" stroke-width="3"/><circle id="connector1pin" cx="140.6" cy="850.0" r="11" fill="#8f8f8f" stroke="#6e6e6e" stroke-width="3"/><rect id="connector0terminal" x="218.4" y="855.0" width="2" height="2" fill="none"/><rect id="connector1terminal" x="139.6" y="855.0" width="2" height="2" fill="none"/><text x="1120.0" y="765.0" font-family="Andale Mono, monospace" font-size="34" fill="#1A1A1A" text-anchor="middle" paint-order="stroke" stroke="#FFFFFF" stroke-width="10" stroke-linejoin="round">PIEZO DISC 108.7 kHz</text></g>
</svg>
